<?xml version="1.0" encoding="iso-8859-1"?>
<!-- Generator: Adobe Illustrator 19.0.0, SVG Export Plug-In . SVG Version: 6.00 Build 0)  -->
<svg version="1.1" id="Layer_1" xmlns="http://www.w3.org/2000/svg" xmlns:xlink="http://www.w3.org/1999/xlink" x="0px" y="0px"
	 viewBox="0 0 460.119 460.119" style="enable-background:new 0 0 460.119 460.119;" xml:space="preserve">
<g id="XMLID_518_">
	<g>
		<g>
			<path d="M167.425,168.511c15.974,2.633,31.197-6.062,37.469-20.203c-15.646-8.269-22.316-27.725-14.16-44.13
				c-3.595-2.116-7.627-3.625-11.99-4.344c-18.965-3.126-36.873,9.714-39.999,28.679
				C135.62,147.477,148.461,165.385,167.425,168.511z"/>
			<circle cx="344.145" cy="40.828" r="36.775"/>
			<path d="M405.148,434.444l-20.469-101.902L401.019,260l1.075-138.109c-0.188-14.863-12.389-26.759-27.252-26.571l-45.868,0.58
				l-18.306-5.395l-37.593-62.058c-3.039-5.017-8.156-7.985-13.577-8.511C259.914,8.974,251.18,0,240.313,0
				c-9.683,0-18.157,7.313-19.126,17.381c-0.229,2.385-0.002,4.739,0.62,6.981l-2.728,2.249l-6.365-7.721
				c-5.983-7.257-15.442-10.681-24.684-8.936c-0.53,0.1-0.968,0.473-1.151,0.98c-0.184,0.507-0.086,1.073,0.257,1.49l19.89,24.125
				l-24.125,19.89c-0.416,0.343-0.62,0.88-0.537,1.413s0.442,0.982,0.943,1.181c8.74,3.475,18.678,1.917,25.935-4.066l7.72-6.365
				l2.254,2.734c-6.383,12.852,2.984,27.791,17.196,27.791c7.838,0,15.126-4.805,17.984-12.522l23.557,38.887l23.633,9.059
				l0.21,0.08l36.906-3.651l-44.122,17.291L226.833,102.3c-9.215-3.533-19.552,1.075-23.085,10.291s1.075,19.552,10.291,23.085
				l74.217,28.449c4.158,1.594,8.765,1.58,12.918-0.048l50.571-19.818c-49.25,37.316-46.429,35.702-50.73,37.01l1.012,79.984
				l0.118-0.001l-15.082,59.689c-0.406,1.607-0.624,3.256-0.651,4.913l-1.788,112.477c-0.188,11.843,9.26,21.596,21.103,21.785
				c0.116,0.002,0.232,0.003,0.348,0.003c11.685,0,21.25-9.379,21.437-21.106l1.748-109.983l17.267-68.34l10.397-0.132
				l-15.095,67.015c-0.662,2.938-0.697,5.983-0.104,8.936l21.369,106.382c2.33,11.599,13.621,19.136,25.25,16.803
				C399.957,457.361,407.48,446.056,405.148,434.444z M231.739,36.419c2.517,1.256,5.306,1.954,8.195,2.013
				c0.035,0.883,0.151,1.765,0.32,2.644c-1.256-0.255-2.546-0.393-3.855-0.393c-1.744,0-3.469,0.248-5.132,0.71l-2.25-2.729
				L231.739,36.419z M240.41,64.76c-1.441,1.188-2.969,1.438-3.996,1.438c-1.891,0-3.664-0.835-4.864-2.29
				c-2.208-2.678-1.825-6.653,0.853-8.861c1.442-1.189,2.969-1.438,3.997-1.438c1.891,0,3.663,0.835,4.864,2.291
				C243.469,58.578,243.088,62.553,240.41,64.76z M240.329,25.516c-3.708,0-6.631-3.184-6.273-6.897
				c0.161-1.674,0.964-3.184,2.261-4.254c1.441-1.189,2.969-1.438,3.997-1.438c1.891,0,3.663,0.835,4.864,2.291
				C248.556,19.316,245.618,25.516,240.329,25.516z"/>
			<path d="M254.463,160.273c-9.926-2.815-20.301,2.966-23.12,12.904l-37.845,133.446l-14.306-0.072
				c0.041-0.031,0.085-0.058,0.125-0.09c3.523-0.501,6.468-3.229,7.077-6.926l15.081-91.497
				c1.843-11.183-5.973-22.678-20.788-23.397l-30.123-4.965c-10.738-1.77-20.878,5.5-22.648,16.238l-5.234,31.755l14.311-0.655
				l24.286-23.611l-22.061,36.739l-45.667,2.091c-7.291,0.334-12.931,6.516-12.598,13.807c0.325,7.086,6.171,12.612,13.192,12.612
				c0.204,0,0.409-0.005,0.615-0.014l52.745-2.415c4.421-0.202,8.447-2.604,10.726-6.399l25.709-42.814l-14.379,49.618
				c-2.127,7.34-8.664,12.205-15.894,12.547c-14.279,1.015-76.352,5.956-76.352,5.956c-4.421,0.338-8.498,2.512-11.244,5.993
				c-2.745,3.481-3.908,7.953-3.206,12.331l14.011,87.36c1.388,8.654,9.528,14.535,18.17,13.148
				c8.648-1.387,14.535-9.522,13.148-18.17l-7.269-45.324c2.958,1.991,6.512,3.165,10.344,3.185l0.094,0.001v79.02H73.269
				c-10.34,0-18.722,8.382-18.722,18.722c0,10.34,8.382,18.722,18.722,18.722H231.48c10.34,0,18.722-8.382,18.722-18.722
				c0-10.34-8.382-18.722-18.722-18.722h-38.094v-78.606l14.146,0.071c0.033,0.001,0.063,0.001,0.096,0.001
				c8.368,0,15.726-5.557,18.011-13.614l41.726-147.132C270.185,173.453,264.415,163.095,254.463,160.273z"/>
		</g>
	</g>
</g>
<g>
</g>
<g>
</g>
<g>
</g>
<g>
</g>
<g>
</g>
<g>
</g>
<g>
</g>
<g>
</g>
<g>
</g>
<g>
</g>
<g>
</g>
<g>
</g>
<g>
</g>
<g>
</g>
<g>
</g>
</svg>
